<mxfile host="Electron" modified="2023-10-06T08:26:07.116Z" agent="Mozilla/5.0 (Windows NT 10.0; Win64; x64) AppleWebKit/537.36 (KHTML, like Gecko) draw.io/21.2.8 Chrome/112.0.5615.165 Electron/24.2.0 Safari/537.36" etag="qKVKW9dcxfHEXiA59rI2" version="21.2.8" type="device">
  <diagram name="Страница 1" id="LFhWC9E6uvUERAKKvEPc">
    <mxGraphModel dx="1036" dy="614" grid="1" gridSize="10" guides="1" tooltips="1" connect="1" arrows="1" fold="1" page="1" pageScale="1" pageWidth="827" pageHeight="1169" math="0" shadow="0">
      <root>
        <mxCell id="0" />
        <mxCell id="1" parent="0" />
        <mxCell id="TYPgL9lI0KrCiQo2RYxg-22" style="edgeStyle=orthogonalEdgeStyle;rounded=0;orthogonalLoop=1;jettySize=auto;html=1;exitX=1;exitY=0.3333333333333333;exitDx=0;exitDy=0;exitPerimeter=0;" edge="1" parent="1" source="TYPgL9lI0KrCiQo2RYxg-1" target="TYPgL9lI0KrCiQo2RYxg-20">
          <mxGeometry relative="1" as="geometry" />
        </mxCell>
        <mxCell id="TYPgL9lI0KrCiQo2RYxg-1" value="Гость&lt;br&gt;" style="shape=umlActor;verticalLabelPosition=bottom;verticalAlign=top;html=1;outlineConnect=0;" vertex="1" parent="1">
          <mxGeometry x="110" y="200" width="30" height="60" as="geometry" />
        </mxCell>
        <mxCell id="TYPgL9lI0KrCiQo2RYxg-23" style="edgeStyle=orthogonalEdgeStyle;rounded=0;orthogonalLoop=1;jettySize=auto;html=1;exitX=1;exitY=0.3333333333333333;exitDx=0;exitDy=0;exitPerimeter=0;" edge="1" parent="1" source="TYPgL9lI0KrCiQo2RYxg-2" target="TYPgL9lI0KrCiQo2RYxg-20">
          <mxGeometry relative="1" as="geometry" />
        </mxCell>
        <mxCell id="TYPgL9lI0KrCiQo2RYxg-2" value="Авторизованный пользователь" style="shape=umlActor;verticalLabelPosition=bottom;verticalAlign=top;html=1;outlineConnect=0;" vertex="1" parent="1">
          <mxGeometry x="110" y="310" width="30" height="60" as="geometry" />
        </mxCell>
        <mxCell id="TYPgL9lI0KrCiQo2RYxg-24" style="edgeStyle=orthogonalEdgeStyle;rounded=0;orthogonalLoop=1;jettySize=auto;html=1;exitX=1;exitY=0.3333333333333333;exitDx=0;exitDy=0;exitPerimeter=0;entryX=0.5;entryY=0.5;entryDx=0;entryDy=22.5;entryPerimeter=0;" edge="1" parent="1" source="TYPgL9lI0KrCiQo2RYxg-4" target="TYPgL9lI0KrCiQo2RYxg-20">
          <mxGeometry relative="1" as="geometry" />
        </mxCell>
        <mxCell id="TYPgL9lI0KrCiQo2RYxg-4" value="Администратор" style="shape=umlActor;verticalLabelPosition=bottom;verticalAlign=top;html=1;outlineConnect=0;" vertex="1" parent="1">
          <mxGeometry x="110" y="430" width="30" height="60" as="geometry" />
        </mxCell>
        <mxCell id="TYPgL9lI0KrCiQo2RYxg-35" style="edgeStyle=orthogonalEdgeStyle;rounded=0;orthogonalLoop=1;jettySize=auto;html=1;exitX=1;exitY=0.5;exitDx=0;exitDy=0;entryX=0.01;entryY=0.128;entryDx=0;entryDy=0;entryPerimeter=0;" edge="1" parent="1" source="TYPgL9lI0KrCiQo2RYxg-9" target="TYPgL9lI0KrCiQo2RYxg-15">
          <mxGeometry relative="1" as="geometry" />
        </mxCell>
        <mxCell id="TYPgL9lI0KrCiQo2RYxg-45" style="edgeStyle=orthogonalEdgeStyle;rounded=0;orthogonalLoop=1;jettySize=auto;html=1;exitX=1;exitY=0.75;exitDx=0;exitDy=0;entryX=0.5;entryY=0;entryDx=0;entryDy=0;dashed=1;" edge="1" parent="1" source="TYPgL9lI0KrCiQo2RYxg-9" target="TYPgL9lI0KrCiQo2RYxg-14">
          <mxGeometry relative="1" as="geometry" />
        </mxCell>
        <mxCell id="TYPgL9lI0KrCiQo2RYxg-9" value="AuthService" style="rounded=0;whiteSpace=wrap;html=1;" vertex="1" parent="1">
          <mxGeometry x="400" y="20" width="120" height="60" as="geometry" />
        </mxCell>
        <mxCell id="TYPgL9lI0KrCiQo2RYxg-37" style="edgeStyle=orthogonalEdgeStyle;rounded=0;orthogonalLoop=1;jettySize=auto;html=1;exitX=1;exitY=0.5;exitDx=0;exitDy=0;entryX=0.01;entryY=0.29;entryDx=0;entryDy=0;entryPerimeter=0;" edge="1" parent="1" source="TYPgL9lI0KrCiQo2RYxg-10" target="TYPgL9lI0KrCiQo2RYxg-15">
          <mxGeometry relative="1" as="geometry" />
        </mxCell>
        <mxCell id="TYPgL9lI0KrCiQo2RYxg-47" style="edgeStyle=orthogonalEdgeStyle;rounded=0;orthogonalLoop=1;jettySize=auto;html=1;exitX=1;exitY=0.75;exitDx=0;exitDy=0;endArrow=none;endFill=0;dashed=1;" edge="1" parent="1" source="TYPgL9lI0KrCiQo2RYxg-10">
          <mxGeometry relative="1" as="geometry">
            <mxPoint x="580" y="225" as="targetPoint" />
          </mxGeometry>
        </mxCell>
        <mxCell id="TYPgL9lI0KrCiQo2RYxg-10" value="UserService" style="rounded=0;whiteSpace=wrap;html=1;" vertex="1" parent="1">
          <mxGeometry x="400" y="180" width="120" height="60" as="geometry" />
        </mxCell>
        <mxCell id="TYPgL9lI0KrCiQo2RYxg-36" style="edgeStyle=orthogonalEdgeStyle;rounded=0;orthogonalLoop=1;jettySize=auto;html=1;exitX=1;exitY=0.5;exitDx=0;exitDy=0;entryX=0.05;entryY=0.192;entryDx=0;entryDy=0;entryPerimeter=0;" edge="1" parent="1" source="TYPgL9lI0KrCiQo2RYxg-11" target="TYPgL9lI0KrCiQo2RYxg-15">
          <mxGeometry relative="1" as="geometry" />
        </mxCell>
        <mxCell id="TYPgL9lI0KrCiQo2RYxg-46" style="edgeStyle=orthogonalEdgeStyle;rounded=0;orthogonalLoop=1;jettySize=auto;html=1;exitX=1;exitY=0.75;exitDx=0;exitDy=0;dashed=1;endArrow=none;endFill=0;" edge="1" parent="1" source="TYPgL9lI0KrCiQo2RYxg-11">
          <mxGeometry relative="1" as="geometry">
            <mxPoint x="580" y="145" as="targetPoint" />
          </mxGeometry>
        </mxCell>
        <mxCell id="TYPgL9lI0KrCiQo2RYxg-11" value="OrderService" style="rounded=0;whiteSpace=wrap;html=1;" vertex="1" parent="1">
          <mxGeometry x="400" y="100" width="120" height="60" as="geometry" />
        </mxCell>
        <mxCell id="TYPgL9lI0KrCiQo2RYxg-38" style="edgeStyle=orthogonalEdgeStyle;rounded=0;orthogonalLoop=1;jettySize=auto;html=1;exitX=1;exitY=0.5;exitDx=0;exitDy=0;entryX=-0.01;entryY=0.385;entryDx=0;entryDy=0;entryPerimeter=0;" edge="1" parent="1" source="TYPgL9lI0KrCiQo2RYxg-12" target="TYPgL9lI0KrCiQo2RYxg-15">
          <mxGeometry relative="1" as="geometry">
            <Array as="points">
              <mxPoint x="540" y="290" />
              <mxPoint x="540" y="270" />
              <mxPoint x="620" y="270" />
              <mxPoint x="620" y="290" />
            </Array>
          </mxGeometry>
        </mxCell>
        <mxCell id="TYPgL9lI0KrCiQo2RYxg-48" style="edgeStyle=orthogonalEdgeStyle;rounded=0;orthogonalLoop=1;jettySize=auto;html=1;exitX=1;exitY=0.75;exitDx=0;exitDy=0;entryX=0;entryY=0.5;entryDx=0;entryDy=0;dashed=1;" edge="1" parent="1" source="TYPgL9lI0KrCiQo2RYxg-12" target="TYPgL9lI0KrCiQo2RYxg-14">
          <mxGeometry relative="1" as="geometry">
            <Array as="points">
              <mxPoint x="540" y="305" />
              <mxPoint x="540" y="320" />
            </Array>
          </mxGeometry>
        </mxCell>
        <mxCell id="TYPgL9lI0KrCiQo2RYxg-12" value="ProductService" style="rounded=0;whiteSpace=wrap;html=1;" vertex="1" parent="1">
          <mxGeometry x="400" y="260" width="120" height="60" as="geometry" />
        </mxCell>
        <mxCell id="TYPgL9lI0KrCiQo2RYxg-39" style="edgeStyle=orthogonalEdgeStyle;rounded=0;orthogonalLoop=1;jettySize=auto;html=1;exitX=1;exitY=0.5;exitDx=0;exitDy=0;entryX=0;entryY=0.5;entryDx=0;entryDy=0;entryPerimeter=0;" edge="1" parent="1" source="TYPgL9lI0KrCiQo2RYxg-13" target="TYPgL9lI0KrCiQo2RYxg-15">
          <mxGeometry relative="1" as="geometry" />
        </mxCell>
        <mxCell id="TYPgL9lI0KrCiQo2RYxg-49" style="edgeStyle=orthogonalEdgeStyle;rounded=0;orthogonalLoop=1;jettySize=auto;html=1;exitX=1;exitY=0.25;exitDx=0;exitDy=0;dashed=1;endArrow=none;endFill=0;" edge="1" parent="1" source="TYPgL9lI0KrCiQo2RYxg-13" target="TYPgL9lI0KrCiQo2RYxg-14">
          <mxGeometry relative="1" as="geometry" />
        </mxCell>
        <mxCell id="TYPgL9lI0KrCiQo2RYxg-13" value="ProductService" style="rounded=0;whiteSpace=wrap;html=1;" vertex="1" parent="1">
          <mxGeometry x="400" y="340" width="120" height="60" as="geometry" />
        </mxCell>
        <mxCell id="TYPgL9lI0KrCiQo2RYxg-14" value="DB" style="shape=datastore;whiteSpace=wrap;html=1;" vertex="1" parent="1">
          <mxGeometry x="550" y="290" width="60" height="60" as="geometry" />
        </mxCell>
        <mxCell id="TYPgL9lI0KrCiQo2RYxg-15" value="Apache kafka" style="shape=cylinder3;whiteSpace=wrap;html=1;boundedLbl=1;backgroundOutline=1;size=15;" vertex="1" parent="1">
          <mxGeometry x="650" y="20" width="40" height="700" as="geometry" />
        </mxCell>
        <mxCell id="TYPgL9lI0KrCiQo2RYxg-40" style="edgeStyle=orthogonalEdgeStyle;rounded=0;orthogonalLoop=1;jettySize=auto;html=1;exitX=1;exitY=0.5;exitDx=0;exitDy=0;entryX=0.01;entryY=0.615;entryDx=0;entryDy=0;entryPerimeter=0;" edge="1" parent="1" source="TYPgL9lI0KrCiQo2RYxg-16" target="TYPgL9lI0KrCiQo2RYxg-15">
          <mxGeometry relative="1" as="geometry" />
        </mxCell>
        <mxCell id="TYPgL9lI0KrCiQo2RYxg-50" style="edgeStyle=orthogonalEdgeStyle;rounded=0;orthogonalLoop=1;jettySize=auto;html=1;exitX=1;exitY=0.25;exitDx=0;exitDy=0;dashed=1;endArrow=none;endFill=0;" edge="1" parent="1" source="TYPgL9lI0KrCiQo2RYxg-16">
          <mxGeometry relative="1" as="geometry">
            <mxPoint x="580" y="435" as="targetPoint" />
          </mxGeometry>
        </mxCell>
        <mxCell id="TYPgL9lI0KrCiQo2RYxg-16" value="CartService" style="rounded=0;whiteSpace=wrap;html=1;" vertex="1" parent="1">
          <mxGeometry x="400" y="420" width="120" height="60" as="geometry" />
        </mxCell>
        <mxCell id="TYPgL9lI0KrCiQo2RYxg-41" style="edgeStyle=orthogonalEdgeStyle;rounded=0;orthogonalLoop=1;jettySize=auto;html=1;exitX=1;exitY=0.5;exitDx=0;exitDy=0;" edge="1" parent="1" source="TYPgL9lI0KrCiQo2RYxg-17">
          <mxGeometry relative="1" as="geometry">
            <mxPoint x="650" y="530" as="targetPoint" />
          </mxGeometry>
        </mxCell>
        <mxCell id="TYPgL9lI0KrCiQo2RYxg-51" style="edgeStyle=orthogonalEdgeStyle;rounded=0;orthogonalLoop=1;jettySize=auto;html=1;exitX=1;exitY=0.25;exitDx=0;exitDy=0;dashed=1;endArrow=none;endFill=0;" edge="1" parent="1" source="TYPgL9lI0KrCiQo2RYxg-17">
          <mxGeometry relative="1" as="geometry">
            <mxPoint x="580" y="515" as="targetPoint" />
          </mxGeometry>
        </mxCell>
        <mxCell id="TYPgL9lI0KrCiQo2RYxg-17" value="CategoryService" style="rounded=0;whiteSpace=wrap;html=1;" vertex="1" parent="1">
          <mxGeometry x="400" y="500" width="120" height="60" as="geometry" />
        </mxCell>
        <mxCell id="TYPgL9lI0KrCiQo2RYxg-42" style="edgeStyle=orthogonalEdgeStyle;rounded=0;orthogonalLoop=1;jettySize=auto;html=1;exitX=1;exitY=0.5;exitDx=0;exitDy=0;entryX=-0.09;entryY=0.843;entryDx=0;entryDy=0;entryPerimeter=0;" edge="1" parent="1" source="TYPgL9lI0KrCiQo2RYxg-18" target="TYPgL9lI0KrCiQo2RYxg-15">
          <mxGeometry relative="1" as="geometry" />
        </mxCell>
        <mxCell id="TYPgL9lI0KrCiQo2RYxg-52" style="edgeStyle=orthogonalEdgeStyle;rounded=0;orthogonalLoop=1;jettySize=auto;html=1;exitX=1;exitY=0.25;exitDx=0;exitDy=0;dashed=1;endArrow=none;endFill=0;" edge="1" parent="1" source="TYPgL9lI0KrCiQo2RYxg-18">
          <mxGeometry relative="1" as="geometry">
            <mxPoint x="580" y="595" as="targetPoint" />
          </mxGeometry>
        </mxCell>
        <mxCell id="TYPgL9lI0KrCiQo2RYxg-18" value="SearchService" style="rounded=0;whiteSpace=wrap;html=1;" vertex="1" parent="1">
          <mxGeometry x="400" y="580" width="120" height="60" as="geometry" />
        </mxCell>
        <mxCell id="TYPgL9lI0KrCiQo2RYxg-43" style="edgeStyle=orthogonalEdgeStyle;rounded=0;orthogonalLoop=1;jettySize=auto;html=1;exitX=1;exitY=0.5;exitDx=0;exitDy=0;entryX=-0.13;entryY=0.957;entryDx=0;entryDy=0;entryPerimeter=0;" edge="1" parent="1" source="TYPgL9lI0KrCiQo2RYxg-19" target="TYPgL9lI0KrCiQo2RYxg-15">
          <mxGeometry relative="1" as="geometry" />
        </mxCell>
        <mxCell id="TYPgL9lI0KrCiQo2RYxg-54" style="edgeStyle=orthogonalEdgeStyle;rounded=0;orthogonalLoop=1;jettySize=auto;html=1;exitX=1;exitY=0.5;exitDx=0;exitDy=0;entryX=0.5;entryY=1;entryDx=0;entryDy=0;dashed=1;" edge="1" parent="1" source="TYPgL9lI0KrCiQo2RYxg-19" target="TYPgL9lI0KrCiQo2RYxg-14">
          <mxGeometry relative="1" as="geometry">
            <Array as="points">
              <mxPoint x="520" y="670" />
              <mxPoint x="580" y="670" />
            </Array>
          </mxGeometry>
        </mxCell>
        <mxCell id="TYPgL9lI0KrCiQo2RYxg-19" value="RegistrationService" style="rounded=0;whiteSpace=wrap;html=1;" vertex="1" parent="1">
          <mxGeometry x="400" y="660" width="120" height="60" as="geometry" />
        </mxCell>
        <mxCell id="TYPgL9lI0KrCiQo2RYxg-21" style="edgeStyle=orthogonalEdgeStyle;rounded=0;orthogonalLoop=1;jettySize=auto;html=1;exitX=1;exitY=0.5;exitDx=0;exitDy=0;exitPerimeter=0;entryX=0;entryY=0.5;entryDx=0;entryDy=0;" edge="1" parent="1" source="TYPgL9lI0KrCiQo2RYxg-20" target="TYPgL9lI0KrCiQo2RYxg-9">
          <mxGeometry relative="1" as="geometry">
            <Array as="points">
              <mxPoint x="340" y="50" />
            </Array>
          </mxGeometry>
        </mxCell>
        <mxCell id="TYPgL9lI0KrCiQo2RYxg-26" style="edgeStyle=orthogonalEdgeStyle;rounded=0;orthogonalLoop=1;jettySize=auto;html=1;exitX=1;exitY=0.5;exitDx=0;exitDy=0;exitPerimeter=0;entryX=0;entryY=0.5;entryDx=0;entryDy=0;" edge="1" parent="1" source="TYPgL9lI0KrCiQo2RYxg-20" target="TYPgL9lI0KrCiQo2RYxg-11">
          <mxGeometry relative="1" as="geometry">
            <Array as="points">
              <mxPoint x="340" y="130" />
            </Array>
          </mxGeometry>
        </mxCell>
        <mxCell id="TYPgL9lI0KrCiQo2RYxg-27" style="edgeStyle=orthogonalEdgeStyle;rounded=0;orthogonalLoop=1;jettySize=auto;html=1;exitX=1;exitY=0.5;exitDx=0;exitDy=0;exitPerimeter=0;entryX=0;entryY=0.5;entryDx=0;entryDy=0;" edge="1" parent="1" source="TYPgL9lI0KrCiQo2RYxg-20" target="TYPgL9lI0KrCiQo2RYxg-10">
          <mxGeometry relative="1" as="geometry">
            <Array as="points">
              <mxPoint x="340" y="210" />
            </Array>
          </mxGeometry>
        </mxCell>
        <mxCell id="TYPgL9lI0KrCiQo2RYxg-28" style="edgeStyle=orthogonalEdgeStyle;rounded=0;orthogonalLoop=1;jettySize=auto;html=1;exitX=1;exitY=0.5;exitDx=0;exitDy=0;exitPerimeter=0;entryX=0;entryY=0.5;entryDx=0;entryDy=0;" edge="1" parent="1" source="TYPgL9lI0KrCiQo2RYxg-20" target="TYPgL9lI0KrCiQo2RYxg-12">
          <mxGeometry relative="1" as="geometry">
            <Array as="points">
              <mxPoint x="340" y="290" />
            </Array>
          </mxGeometry>
        </mxCell>
        <mxCell id="TYPgL9lI0KrCiQo2RYxg-29" style="edgeStyle=orthogonalEdgeStyle;rounded=0;orthogonalLoop=1;jettySize=auto;html=1;exitX=1;exitY=0.5;exitDx=0;exitDy=0;exitPerimeter=0;entryX=0;entryY=0.5;entryDx=0;entryDy=0;" edge="1" parent="1" source="TYPgL9lI0KrCiQo2RYxg-20" target="TYPgL9lI0KrCiQo2RYxg-13">
          <mxGeometry relative="1" as="geometry">
            <Array as="points">
              <mxPoint x="340" y="370" />
            </Array>
          </mxGeometry>
        </mxCell>
        <mxCell id="TYPgL9lI0KrCiQo2RYxg-30" style="edgeStyle=orthogonalEdgeStyle;rounded=0;orthogonalLoop=1;jettySize=auto;html=1;exitX=1;exitY=0.5;exitDx=0;exitDy=0;exitPerimeter=0;entryX=0;entryY=0.5;entryDx=0;entryDy=0;" edge="1" parent="1" source="TYPgL9lI0KrCiQo2RYxg-20" target="TYPgL9lI0KrCiQo2RYxg-16">
          <mxGeometry relative="1" as="geometry">
            <Array as="points">
              <mxPoint x="340" y="450" />
            </Array>
          </mxGeometry>
        </mxCell>
        <mxCell id="TYPgL9lI0KrCiQo2RYxg-32" style="edgeStyle=orthogonalEdgeStyle;rounded=0;orthogonalLoop=1;jettySize=auto;html=1;exitX=1;exitY=0.5;exitDx=0;exitDy=0;exitPerimeter=0;entryX=0;entryY=0.5;entryDx=0;entryDy=0;" edge="1" parent="1" source="TYPgL9lI0KrCiQo2RYxg-20" target="TYPgL9lI0KrCiQo2RYxg-17">
          <mxGeometry relative="1" as="geometry">
            <Array as="points">
              <mxPoint x="340" y="530" />
            </Array>
          </mxGeometry>
        </mxCell>
        <mxCell id="TYPgL9lI0KrCiQo2RYxg-33" style="edgeStyle=orthogonalEdgeStyle;rounded=0;orthogonalLoop=1;jettySize=auto;html=1;exitX=1;exitY=0.5;exitDx=0;exitDy=0;exitPerimeter=0;entryX=0;entryY=0.5;entryDx=0;entryDy=0;" edge="1" parent="1" source="TYPgL9lI0KrCiQo2RYxg-20" target="TYPgL9lI0KrCiQo2RYxg-18">
          <mxGeometry relative="1" as="geometry">
            <Array as="points">
              <mxPoint x="340" y="610" />
            </Array>
          </mxGeometry>
        </mxCell>
        <mxCell id="TYPgL9lI0KrCiQo2RYxg-34" style="edgeStyle=orthogonalEdgeStyle;rounded=0;orthogonalLoop=1;jettySize=auto;html=1;exitX=1;exitY=0.5;exitDx=0;exitDy=0;exitPerimeter=0;entryX=0;entryY=0.5;entryDx=0;entryDy=0;" edge="1" parent="1" source="TYPgL9lI0KrCiQo2RYxg-20" target="TYPgL9lI0KrCiQo2RYxg-19">
          <mxGeometry relative="1" as="geometry">
            <Array as="points">
              <mxPoint x="340" y="690" />
            </Array>
          </mxGeometry>
        </mxCell>
        <mxCell id="TYPgL9lI0KrCiQo2RYxg-20" value="Shop API" style="html=1;dashed=0;whiteSpace=wrap;shape=mxgraph.dfd.start" vertex="1" parent="1">
          <mxGeometry x="210" y="317.5" width="100" height="45" as="geometry" />
        </mxCell>
      </root>
    </mxGraphModel>
  </diagram>
</mxfile>
